# xmcd
#
# Track frame offsets:
#	187
#	74105
#	98890
#	148687
#	205512
#	235532
#	279275
#	301565
#
# Disc length: 4570 seconds
#
# Revision: 1
# Processed by: cddbd v1.5.1PL0 Copyright (c) Steve Scherf et al.
# Submitted via: CDex 1.50Beta5
#
DISCID=6611d808
DTITLE=A・ルービンシュタイン - シューマン&グリーグ ピアノ協奏曲
DYEAR=1900
DGENRE=Classical
TTITLE0=シューマンPf協奏曲 1楽章
TTITLE1=シューマンPf協奏曲 2楽章
TTITLE2=シューマンPf協奏曲 3楽章
TTITLE3=グリーグPf協奏曲 1楽章
TTITLE4=グリーグPf協奏曲 2楽章
TTITLE5=グリーグPf協奏曲 3楽章
TTITLE6=ショパン アンダンテ・スピアナートと華麗なる大ポロネーズ アンダンテ
TTITLE7=ショパン アンダンテ・スピアナートと華麗なる大ポロネーズ ポロネーズ
EXTD=
EXTT0=
EXTT1=
EXTT2=
EXTT3=
EXTT4=
EXTT5=
EXTT6=
EXTT7=
PLAYORDER=
